<?xml version="1.0" encoding="UTF-8" standalone="no"?><svg width="64" height="64" xmlns="http://www.w3.org/2000/svg" viewBox="0 0 64 64"><circle fill="##1774FF" cx="50.569" cy="58.938" r="4.233"/><circle fill="##1774FF" cx="28.398" cy="58.938" r="4.233"/><path fill="##1774FF" d="M62.522,10.478A5.514,5.514,0,0,0,58.1,8.433H14.03l-.724-2.511A7.5,7.5,0,0,0,6.339.83H2.184a1.786,1.786,0,1,0,0,3.571H6.339A3.935,3.935,0,0,1,9.874,6.912l.439,1.521h0l7.336,25.453a7.935,7.935,0,0,0,2.2,3.506A10.555,10.555,0,0,0,18.553,46.3c.091.287.192.563.3.827a9.722,9.722,0,0,0,9.1,5.857H56.205a1.787,1.787,0,0,0,0-3.573H27.958a6.245,6.245,0,0,1-5.8-3.652q-.106-.257-.194-.534a6.987,6.987,0,0,1,.913-5.946,7.513,7.513,0,0,0,2.571.471H50.979A8.236,8.236,0,0,0,58.652,33.8L63.4,15.272A5.515,5.515,0,0,0,62.522,10.478Z"/></svg>